                        WARNING!!!! Russian audio ONLY!!!!!

Plot: In this spin on the fairy tale, Hansel & Gretel are now bounty hunters who track and kill witches all over the world. As the fabled Blood Moon approaches, the siblings encounter a new form of evil that might hold a secret to their past. 

Director: Tommy Wirkola
Writers: Tommy Wirkola, Dante Harper
Stars: Jeremy Renner, Gemma Arterton and Peter Stormare 

MediaInfo:
General
Complete name                            : D:111111Ohotnik.na.vedm.2012.D.CAMRip.1400Mb.avi
Format                                   : AVI
Format/Info                              : Audio Video Interleave
File size                                : 1.36 GiB
Duration                                 : 1h 20mn
Overall bit rate                         : 2 420 Kbps
Writing application                      : VirtualDubMod 1.5.10.3 | www.virtualdub-fr.org || (build 2550/release)
Writing library                          : VirtualDubMod build 2550/release

Video
ID                                       : 0
Format                                   : MPEG-4 Visual
Format profile                           : Advanced Simple@L5
Format settings, BVOP                    : 2
Format settings, QPel                    : No
Format settings, GMC                     : No warppoints
Format settings, Matrix                  : Default (MPEG)
Codec ID                                 : XVID
Codec ID/Hint                            : XviD
Duration                                 : 1h 20mn
Bit rate                                 : 2 282 Kbps
Width                                    : 720 pixels
Height                                   : 304 pixels
Display aspect ratio                     : 2.35:1
Frame rate                               : 25.000 fps
Color space                              : YUV
Chroma subsampling                       : 4:2:0
Bit depth                                : 8 bits
Scan type                                : Progressive
Compression mode                         : Lossy
Bits/(Pixel*Frame)                       : 0.417
Stream size                              : 1.29 GiB (94%)
Writing library                          : XviD 1.2.1 (UTC 2008-12-04)

Audio
ID                                       : 1
Format                                   : MPEG Audio
Format version                           : Version 1
Format profile                           : Layer 3
Codec ID                                 : 55
Codec ID/Hint                            : MP3
Duration                                 : 1h 20mn
Bit rate mode                            : Constant
Bit rate                                 : 128 Kbps
Channel(s)                               : 2 channels
Sampling rate                            : 48.0 KHz
Compression mode                         : Lossy
Stream size                              : 73.9 MiB (5%)
Alignment                                : Aligned on interleaves
Interleave, duration                     : 40 ms (1.00 video frame)
Interleave, preload duration             : 504 ms
Writing library                          : LAME3.99r
Encoding settings                        : -m s -V 4 -q 2 -lowpass 17 -b 128

Screens: 
http://img832.imageshack.us/img832/1146/grabrj.png 
http://img43.imageshack.us/img43/452/grab2v.png 
http://img27.imageshack.us/img27/5161/grab3d.png 
http://img820.imageshack.us/img820/5024/grab4dc.png 
http://img442.imageshack.us/img442/629/grab5gz.png 
http://img607.imageshack.us/img607/8113/grab6py.png 
http://img841.imageshack.us/img841/4715/grab7lp.png 
http://img16.imageshack.us/img16/9594/grab9c.png

